<?xml version="1.0" encoding="utf-8"?>
<!-- Generator: Adobe Illustrator 23.1.0, SVG Export Plug-In . SVG Version: 6.00 Build 0)  -->
<svg version="1.1" xmlns="http://www.w3.org/2000/svg" xmlns:xlink="http://www.w3.org/1999/xlink" x="0px" y="0px"
	 viewBox="0 0 24 24" enable-background="new 0 0 24 24" xml:space="preserve">
<g id="Layer_1">
	<rect x="2.038" y="16.098" width="20.16" height="3.401"/>
	<polygon points="2.038,7.387 9.438,14.935 11.349,14.935 11.349,12.463 4.045,4.915 2.038,4.915 	"/>
	<polygon points="22.198,7.387 14.798,14.935 12.887,14.935 12.887,12.463 20.192,4.915 22.198,4.915 	"/>
</g>
<g id="Layer_2" display="none">
	<g display="inline">
		<polygon fill-rule="evenodd" clip-rule="evenodd" points="10.882,14.9 10.882,13.398 0.428,3.102 0.428,7.09 8.39,14.9 		"/>
		<polygon fill-rule="evenodd" clip-rule="evenodd" points="13.448,13.394 13.448,15.356 15.472,15.356 23.572,7.09 23.572,3.112 		
			"/>
	</g>
	<g display="inline">
		<rect x="7.602" y="16.844" width="0.794" height="3.538"/>
		<path d="M12.145,17.235c-0.153-0.158-0.339-0.279-0.557-0.363c-0.218-0.085-0.465-0.127-0.74-0.127c-0.267,0-0.52,0.02-0.76,0.06
			c-0.24,0.04-0.442,0.082-0.607,0.127v4.608h0.807v-1.354c0.089,0.049,0.202,0.093,0.34,0.133c0.138,0.04,0.289,0.06,0.454,0.06
			c0.244,0,0.463-0.044,0.657-0.133c0.193-0.089,0.355-0.213,0.484-0.373c0.129-0.16,0.228-0.351,0.297-0.573
			c0.069-0.222,0.103-0.467,0.103-0.733c0-0.28-0.041-0.532-0.123-0.757C12.416,17.584,12.298,17.393,12.145,17.235z M11.591,19.385
			c-0.136,0.2-0.35,0.3-0.644,0.3c-0.133,0-0.259-0.021-0.377-0.063c-0.118-0.042-0.212-0.088-0.283-0.137v-1.994
			c0.08-0.022,0.161-0.037,0.243-0.043c0.082-0.007,0.161-0.01,0.237-0.01c0.36,0,0.621,0.1,0.784,0.3
			c0.162,0.2,0.243,0.48,0.243,0.84C11.795,18.916,11.727,19.185,11.591,19.385z"/>
		<path d="M16.056,17.235c-0.153-0.158-0.339-0.279-0.557-0.363c-0.218-0.085-0.465-0.127-0.74-0.127c-0.267,0-0.52,0.02-0.76,0.06
			c-0.24,0.04-0.442,0.082-0.607,0.127v4.608h0.807v-1.354c0.089,0.049,0.202,0.093,0.34,0.133c0.138,0.04,0.289,0.06,0.453,0.06
			c0.245,0,0.463-0.044,0.657-0.133c0.193-0.089,0.355-0.213,0.484-0.373c0.129-0.16,0.228-0.351,0.297-0.573
			c0.069-0.222,0.103-0.467,0.103-0.733c0-0.28-0.041-0.532-0.123-0.757C16.327,17.584,16.21,17.393,16.056,17.235z M15.503,19.385
			c-0.136,0.2-0.35,0.3-0.644,0.3c-0.133,0-0.259-0.021-0.377-0.063c-0.118-0.042-0.212-0.088-0.283-0.137v-1.994
			c0.08-0.022,0.161-0.037,0.243-0.043c0.082-0.007,0.161-0.01,0.237-0.01c0.36,0,0.621,0.1,0.784,0.3s0.243,0.48,0.243,0.84
			C15.706,18.916,15.638,19.185,15.503,19.385z"/>
		<path d="M18.778,16.712c-0.204,0-0.404,0.039-0.599,0.117c-0.195,0.078-0.368,0.194-0.519,0.348
			c-0.151,0.154-0.272,0.346-0.363,0.578c-0.091,0.232-0.136,0.501-0.136,0.809c0,0.263,0.035,0.505,0.106,0.725
			s0.18,0.412,0.326,0.575c0.146,0.163,0.333,0.29,0.559,0.381c0.226,0.091,0.492,0.137,0.799,0.137c0.12,0,0.237-0.007,0.353-0.02
			c0.115-0.013,0.223-0.03,0.323-0.05c0.1-0.02,0.189-0.042,0.266-0.067c0.078-0.024,0.139-0.048,0.183-0.07l-0.106-0.662
			c-0.093,0.04-0.221,0.078-0.383,0.114c-0.162,0.036-0.341,0.053-0.536,0.053c-0.333,0-0.587-0.077-0.762-0.231
			c-0.175-0.154-0.274-0.371-0.296-0.652h2.296c0.004-0.045,0.008-0.095,0.01-0.15c0.002-0.056,0.003-0.106,0.003-0.15
			c0-0.593-0.134-1.038-0.403-1.337C19.631,16.861,19.257,16.712,18.778,16.712z M18,18.202c0.013-0.103,0.038-0.203,0.073-0.301
			c0.036-0.098,0.085-0.185,0.15-0.261c0.064-0.076,0.143-0.137,0.236-0.184c0.093-0.047,0.202-0.07,0.326-0.07
			c0.12,0,0.223,0.021,0.309,0.064c0.086,0.042,0.16,0.1,0.22,0.174c0.06,0.074,0.105,0.16,0.136,0.261
			c0.031,0.1,0.047,0.206,0.047,0.318H18z"/>
		<path d="M23.149,16.888c-0.066-0.016-0.135-0.029-0.206-0.04c-0.071-0.011-0.142-0.02-0.212-0.027
			c-0.071-0.007-0.133-0.01-0.186-0.01c-0.283,0-0.541,0.026-0.773,0.077c-0.232,0.051-0.426,0.106-0.58,0.164v3.33h0.803V17.58
			c0.04-0.013,0.109-0.029,0.209-0.047c0.099-0.018,0.194-0.027,0.282-0.027c0.155,0,0.291,0.012,0.408,0.037
			c0.117,0.025,0.209,0.048,0.275,0.07l0.139-0.682C23.268,16.918,23.215,16.903,23.149,16.888z"/>
		<path d="M5.751,15.904v4.477h0.794v-5.224H6.498C6.085,15.158,5.751,15.492,5.751,15.904z"/>
		<rect x="0.995" y="15.158" width="0.9" height="5.224"/>
		<polygon points="2.18,17.902 2.18,18.497 4.065,20.382 4.957,20.382 4.957,19.919 3.017,17.902 		"/>
		<polygon points="2.18,17.01 2.18,17.604 3.02,17.604 4.957,15.63 4.957,15.158 4.065,15.158 		"/>
	</g>
	<g id="path35_2_" display="inline">
		<path fill-rule="evenodd" clip-rule="evenodd" d="M7.999,15.356h3.339v-2.149L0.428,2.461h1.984l9.754,9.589l9.423-9.589h1.984
			l-10.58,10.746v2.81c0,0.165-0.165,0.331-0.331,0.331H7.999c-0.397,0-0.463-0.331-0.463-0.496
			C7.536,15.687,7.602,15.356,7.999,15.356z"/>
	</g>
</g>
<g id="Layer_3" display="none">
	<g display="inline">
		<polygon fill-rule="evenodd" clip-rule="evenodd" points="11.026,14.407 11.026,13.171 1.92,4.202 1.92,7.604 8.856,14.407 		"/>
		<polygon fill-rule="evenodd" clip-rule="evenodd" points="13.262,13.167 13.262,14.804 15.024,14.804 22.08,7.604 22.08,4.211 		
			"/>
	</g>
	<g id="path35_1_" display="inline">
		<path fill-rule="evenodd" clip-rule="evenodd" d="M7.795,14.804h3.629v-1.872L1.92,3.572h1.728l8.496,8.352l8.208-8.352h1.728
			l-9.216,9.36v2.448c0,0.144-0.144,0.288-0.288,0.288H7.795c-0.346,0-0.403-0.288-0.403-0.432S7.45,14.804,7.795,14.804z"/>
	</g>
	<rect x="1.966" y="16.098" display="inline" width="20.16" height="3.185"/>
</g>
</svg>
